<?xml version="1.0" encoding="utf-8"?>
<!-- Generator: Adobe Illustrator 25.4.1, SVG Export Plug-In . SVG Version: 6.00 Build 0)  -->
<svg version="1.0" id="Layer_1" xmlns="http://www.w3.org/2000/svg" xmlns:xlink="http://www.w3.org/1999/xlink" x="0px" y="0px"
	 viewBox="0 0 612 792" style="enable-background:new 0 0 612 792;" xml:space="preserve">
<style type="text/css">
	.st0{fill:#010101;}
	.st1{fill:#020202;}
	.st2{fill:#030303;}
	.st3{fill:#090909;}
	.st4{fill:#0C0C0C;}
	.st5{fill:#0D0E0E;}
	.st6{fill:#121212;}
	.st7{fill:#3C3C3B;}
	.st8{fill:#444444;}
	.st9{fill:#767676;}
</style>
<path id="home" class="st0" d="M389.3,352.9v101.6h-61v-61h-61v61h-61V352.9H176L297.9,231l121.9,121.9H389.3z M379.2,292.9v-51.7
	h-30.5v21.3L379.2,292.9z"/>
<g id="contact">
	<path class="st0" d="M292.7,341.3c1.2,0,2.4,0,3.6,0c2.5,0,5,0,7.5,0c3.8,0,7.6-0.1,11.3-0.1c16.8-0.1,30.7,1.1,43.5,13.2
		c13.2,15.8,12.8,32.9,12.8,52.4c0,1.9,0,3.7,0.1,5.6c0,1.8,0,3.6,0,5.4c0,1.6,0,3.2,0,4.9c-0.5,6.4-1.7,10.2-6.6,14.4
		c-16.9,10.1-37.6,11.8-56.7,11.7c-1.7,0-3.4,0-5.1,0c-18.5-0.2-34.6-3.3-51.3-11.8c-1.5-0.7-1.5-0.7-3-1.5
		c-4.2-4.4-3.5-9.4-3.4-15.1c0-1.2,0-2.4,0-3.7c0-2.6,0-5.2,0-7.8c0-3.9,0-7.8,0-11.8c0-16.5,0.8-30.6,12.6-43.2
		C268.3,344.6,279,341.3,292.7,341.3z"/>
	<path class="st0" d="M326.6,256.7c9.2,5.4,14.2,12.3,17.6,22.6c3,13.4,0.5,26.5-6.7,38.2c-6.1,8.3-12.9,14-23.1,16.5
		c-9.8,1.4-17.7-0.2-25.9-5.8c-11.1-9.2-16.3-20.6-18.2-34.7c-0.5-10.6,2.5-19.8,8.5-28.4C291.5,252.6,310.3,249,326.6,256.7z"/>
	<path class="st0" d="M372.6,346c16.6-0.9,30.7-0.9,44.6,9.7c8.9,8.2,14.5,18.8,15.4,31c0.1,4.5,0.2,8.9,0.3,13.4
		c0.1,2.3,0.1,2.3,0.2,4.7c0.1,11.4,0.1,11.4-3.9,16.1c-1.9,1-1.9,1-3.9,2c-1.1,0.6-2.1,1.1-3.3,1.7c-11.6,4.6-22.6,6.9-35.1,6.8
		c0-1.5,0-3.1,0-4.7c-0.1-5.8-0.2-11.6-0.3-17.4c0-2.5-0.1-5-0.1-7.5C386.2,381,383.9,364,372.6,346z"/>
	<path class="st0" d="M231.8,345.8c1.7,0,1.7,0,3.4,0c2.7,0,5.4,0.1,8.2,0.1c-0.7,1.3-1.4,2.6-2.1,4c-0.9,1.8-1.8,3.5-2.7,5.3
		c-0.7,1.3-0.7,1.3-1.4,2.6c-0.4,0.9-0.9,1.7-1.3,2.6c-0.4,0.8-0.8,1.5-1.2,2.3c-3.6,9.1-4.5,17.7-4.7,27.4c0,1.2-0.1,2.4-0.1,3.6
		c-0.1,3.7-0.2,7.5-0.2,11.2c-0.1,2.5-0.1,5.1-0.2,7.6c-0.1,6.2-0.3,12.4-0.4,18.6c-16-0.9-33.5-2.2-45.5-14.2
		c-0.4-5.4-0.4-10.8-0.4-16.2c0-1.5-0.1-3-0.1-4.5c-0.1-14.7,3.1-27.2,13.5-38C207.1,348.9,217.7,345.5,231.8,345.8z"/>
	<path class="st0" d="M253.2,280.6c7,6.6,10,13.6,10.4,23.2c-0.4,12.5-4.8,20.4-13,29.6c-6.6,5.7-13.4,6.2-21.8,6
		c-7.8-1-12.8-4.6-17.8-10.5c-7.3-10.2-10-19.5-8.3-32c2.1-8.5,6.4-14.2,13.6-19C228.6,271.1,242,272.5,253.2,280.6z"/>
	<path class="st0" d="M400,277.9c6.9,4.9,11.1,10.8,13.2,18.9c1.6,11-1.1,20.2-6.4,29.8c-5.2,6.4-11.1,11.7-19.5,12.7
		c-9.5,0-15.8-0.4-23-7.1c-7.9-8.3-11.6-16.7-12.3-28.2c0.4-9.3,3.8-16.5,10.1-23.3C374.2,273.1,387.1,270.7,400,277.9z"/>
</g>
<g id="patanahikyahaiye">
	<path class="st1" d="M271.8,286.8c1.1,0,2.1,0,3.2,0c4.7,0.4,4.7,0.4,7,2.2c0.4,2.5,0.4,2.5,0.4,5.4c0.3,4.6,0.3,4.6,3,8.4
		c4.4,1.5,7.5,1,12.1,0.4c2.5-0.1,2.5-0.1,5.1,1.5c2.7,4.4,4.2,8.1,3.4,13.4c-2.4,1.9-3.9,3-7,3c0.3,0.7,0.7,1.3,1,2
		c0.1,3.4,0.2,6.3-0.8,9.6c-0.1,0.8-0.1,1.6-0.2,2.4c2.3,2.8,2.3,2.8,5,5c-1,5.1-2.5,8.4-6.3,12c-1.7,1-1.7,1-5,0.9
		c-0.9-0.3-1.7-0.6-2.6-0.9c0,2,0,4,0,6c1.3,0.3,2.6,0.7,4,1c1.1,4.3,2,7.6,2,12c0.7,0.1,1.4,0.2,2.2,0.4c2.9,0.7,5.3,1.6,7.9,3
		c1.3,0.6,1.3,0.6,2.6,1.2c2.5,1.6,3.8,2.9,5.3,5.4c-0.2,4.1-0.9,7.4-3,11c1,0,1.9-0.1,2.9-0.1c5.2,0.7,7.6,4.9,10.8,8.7
		c3.1,3.4,6.1,4.7,10.3,6.4c2.1,2.1,2.4,3.1,3,6c1.3-0.1,1.3-0.1,2.6-0.2c4.2,0.3,6.2,1.6,9.6,4c9.6,6.2,9.6,6.2,20.6,8.2
		c3.5-1.1,5-2.1,7.1-5c0.8-2.1,0.8-2.1,1-4c-0.9,0-1.9,0.1-2.9,0.1C373,416,373,416,371,414c0.4-2.1,0.4-2.1,1-4
		c3.4-1.1,4.6-1.2,7.8,0.4c0.7,0.5,1.4,1,2.2,1.6c1.2-3.5,1.1-6.4,1-10c-0.7,0-1.3,0-2,0c-1,0-2,0-3,0c-3.6-5.4-2.5-12.6-1.5-18.9
		c0.5-2.1,1-4.1,1.5-6.1c-1.9-0.5-3.8-1-5.7-1.4c-1.1-0.3-2.1-0.5-3.2-0.8c-5.1-1.6-5.1-1.6-10.1-0.8c-9.7,1.1-9.7,1.1-13.8-2.2
		c-1.2-2.8-1.2-2.8-1.2-5.4c1.2-3,2.4-4.5,5-6.4c2.2,0.2,2.2,0.2,4,1c-0.7,0.8-1.3,1.6-2,2.4c-2.2,2.3-2.2,2.3-2,4.6
		c2,0.3,4,0.7,6,1c-0.7-0.7-1.3-1.3-2-2c0.4-2.6,0.4-2.6,1-5c3.3-1.1,6.6-2.2,10-3c1.6,1.7,1.6,1.7,3,4c-0.3,2.8-0.3,2.8-1,5
		c7.1,3.6,7.1,3.6,15,4c1-2,1-2,2-4c-1.2-1-1.2-1-2.4-1.9c-5.7-5.8-4.9-14.4-4.8-22c0.3-15.3,0.3-15.3,2.2-19c-1.3,0-2.6,0-4,0
		c-1.8,0-3.5,0-5.3,0c-1.4,0-1.4,0-2.8,0c-4.9,0-9.5-0.2-14.4-0.8c-3.4-0.4-4.3-0.4-7.5,1.2c-8,9.9-10.3,23.1-9.1,35.6
		c1.1,5.1,3.3,9.4,7,13c4.4,2.1,9,2.4,13.8,2.8c2.2,0.2,2.2,0.2,4.2,1.2c-0.9,3.9-0.9,3.9-2,5c-2,0.1-4,0.1-6.1,0.1
		c-1.1,0-2.2,0-3.3,0c-0.9,0-1.7,0-2.6,0c-0.1,1-0.2,2-0.3,3c-1.7,14.9-1.7,14.9-5.7,21c-1,0.5-1,0.5-2,1c0-1.1,0-1.1,0.1-2.2
		c0.1-3.4,0.2-6.8,0.3-10.2c0.1-1.2,0.1-2.3,0.2-3.5c0.1-8.3-1.4-12.7-6.5-19c-2.9-4.7-4.2-8.6-4.9-14.1c-0.7-5.2-2-7.9-5.8-11.5
		c-2.9-3.1-2.7-7.1-2.6-11.1c0.6-5.2,3.2-8.5,7.3-11.7c2.5-1.4,4.3-2,7-2.6c0.1-0.8,0.2-1.7,0.3-2.5c1.4-10.5,3.1-18.4,11.7-25.2
		c2-1.3,2-1.3,5.2-2c4.9,1.3,7.1,4.7,9.8,8.8c1.3,0,2.6,0,4,0c0.5-1,0.9-1.9,1.4-2.9c1.6-3.1,1.6-3.1,3.6-4.1c4-0.4,6.2-0.7,9.4,1.9
		c3.1,6.1,1.7,12.6,0.6,19.1c1.2,0.2,2.3,0.5,3.5,0.7c1.5,0.3,3.1,0.7,4.6,1c0.8,0.2,1.5,0.3,2.3,0.5c8.2,1.8,13.9,5.9,18.6,12.8
		c3.9,9.2,0.7,19.8-2,29c-1.8,3.9-4.3,6.7-8,9c-2.8,0.9-4.4,1.1-7.2,1.1c-1.3,0-2.5,0-3.8-0.1c-3.5,14.4-3.5,14.4-4,29
		c0.5,0.6,1,1.3,1.5,1.9c2,2.7,1.9,4.8,1.9,8.1c-0.4,2-0.4,2-1.9,3.9c-1.8,2.4-2,4.1-2.4,7.1c-0.6,3.7-0.9,4.8-3.6,7.6
		c-4.8,2.7-9.1,3.1-14.6,2.4c-6.9-2.1-13-6.2-19-10c-2.8,4.3-3.1,6.8-3,12c-0.7,2.1-0.7,2.1-2,4c-2.3,0.9-2.3,0.9-5.1,1.6
		c-2.7,0.6-2.7,0.6-4.9,1.4c-0.8,2.3-1.4,4.6-2,7c-14.1-0.6-25.7-13.7-35.3-22.8c-2-2.7-2.4-4.9-2.7-8.2c-0.9-0.3-1.8-0.6-2.8-0.9
		c-14.9-5-14.9-5-19.2-10.1c-1.2-4-1.3-6,0-10c0.1-0.8,0.3-1.7,0.4-2.6c0.6-2.4,0.6-2.4,2.6-4.4c0.2-0.7,0.3-1.3,0.5-2
		c0.5-2,0.5-2,2.5-4c1,0,2,0,3,0c0-1,0-1.9-0.1-2.9c0.1-3.1,0.1-3.1,1.1-4.1c0.3-2.3,0.4-4.5,0.6-6.8c0.4-2.2,0.4-2.2,2.4-5.2
		c0.2-2.3,0.2-2.3,0.1-4.7c0-0.8,0-1.6-0.1-2.4c0-0.6,0-1.2-0.1-1.9c-1,0.3-2,0.7-3,1c-1,2-1,2-1.6,4.4c-1.2,4.4-1.2,4.4-3.4,6.6
		c-6,0.8-10.8,0.3-16-3c0.1-0.6,0.2-1.2,0.3-1.8c0.5-4.8,0.5-4.8-1.7-9c-5-3.5-8.5-3.3-14.4-2.4c-2.2,0.2-2.2,0.2-4.6-1.3
		c-2.6-4.3-4.6-8.3-4.5-13.4c0.3-0.7,0.6-1.4,0.9-2.1c1-0.3,1-0.3,2-0.7c2.4-1.2,2.4-1.2,2.7-4.4c0.1-1.9,0.1-1.9,0.2-3.8
		c0.1-1.2,0.2-2.5,0.3-3.7c-0.2-3.7-0.9-4.7-3.2-7.4c-0.2-4.5,1.5-7,4.2-10.4c3.3-3.5,3.3-3.5,7-3.7c2.8,1.1,2.8,1.1,4.7,2.2
		c3.4,1.4,5.7,0.4,9.1-0.8c3.7-2.4,4.1-6.2,5.1-10.3C266.8,286.2,269.4,286.8,271.8,286.8z M268,290c-1.2,3.9-2,6.9-2,11
		c-2.2,0.5-4.4,1-6.6,1.5c-1.9,0.4-3.8,0.9-5.7,1.3c-3.4,0.2-4.1-0.8-6.7-2.8c-2.1-0.2-2.1-0.2-4,1c-2.3,3-2.3,3-4,6
		c1.2,2.5,2.5,4.7,4,7c-0.2,2.5-0.2,2.5-0.9,5.4c-0.6,2.9-1.1,5.4-1,8.4c0,0.7-0.1,1.5-0.1,2.3c-2.5,1.8-2.5,1.8-5,3
		c0.4,1.5,0.9,3,1.3,4.4c0.2,0.8,0.5,1.6,0.7,2.5c0.3,0.7,0.6,1.4,0.9,2.1c3.1,1.3,3.1,1.3,6.6,0.2c4.8-0.7,7.6,1.1,11.5,3.6
		c1.8,1.3,1.8,1.3,3.9,1.1c-0.3,3.6-0.7,7.3-1,11c2.8,0.9,4.4,1.1,7.2,1.1c1.3,0,2.5,0,3.8-0.1c1.9-3.3,2.5-6.3,3-10
		c2-0.7,4-1.3,6-2c0.2-2.9,0.2-2.9,0-6c-0.7-0.7-1.3-1.3-2-2c-1,0.5-1,0.5-2,1c-7.4,0.7-13.9,0.6-20-4c-4.4-4.6-5.4-8.5-5.3-14.7
		c0.6-5.4,3.1-8.4,7.1-11.8c5.6-2.8,12.1-2.4,18.1-1.6c4.6,1.8,7.3,3.9,10,8c0.7,0,1.3,0,2,0c0.5,1.4,1,2.8,1.4,4.2
		c0.3,0.8,0.5,1.6,0.8,2.4c0.7,2.1,1.2,4.2,1.8,6.4c-1.6,0.7-3.3,1.3-5,2c0.2,2.4,0.5,4.9,0.8,7.3c0.1,0.7,0.1,1.4,0.2,2.1
		c0.4,3.3,0.7,5.2,3,7.6c2,1.2,2,1.2,4,1.1c3.1-1.7,4.4-4,6-7.1c0.1-2.2,0.1-2.2-1-4c-0.8-0.5-0.8-0.5-1.6-1.1
		c-1.9-2.6-1.4-4.7-0.9-7.8c0.2-1.1,0.2-1.1,0.4-2.2c0.2-1.1,0.2-1.1,0.3-2.3c0.3-1.8,0.6-3.7,0.9-5.5c1.6-0.7,3.3-1.3,5-2
		c-0.5-4.8-1.2-8-4-12c-0.7,0.2-1.4,0.4-2.1,0.6c-5.6,1.4-9.4,1.8-14.6-0.8c-3.1-2.1-4.1-3-4.9-6.7c0-3,0-3,0.6-8.1
		C273.6,290.5,273.6,290.5,268,290z M257,316c-2.9,3.5-3.6,6.5-3.3,11c0.7,4.1,2.7,6.8,6,9.2c5.3,3.1,10.3,3.4,16.3,2.7
		c1-0.3,2-0.7,3-1c0-2,0-4,0-6c-0.7-0.3-1.3-0.7-2-1c-0.1-4.5,0.1-8.6,1-13c1.3-0.3,2.6-0.7,4-1c-2.8-3.5-5.5-4.9-9.8-5.8
		C266.7,310.7,261.3,312.7,257,316z M280,322c-0.7,3.6-0.7,3.6-1,7c1,0.5,1,0.5,2,1c0.5,2.6,0.5,2.6,0.8,5.9
		c0.1,1.2,0.2,2.4,0.4,3.7c0.1,1.3,0.2,2.5,0.4,3.8c0.2,2.5,0.5,5,0.7,7.5c0.1,1.1,0.2,2.2,0.3,3.4c0.2,2.8,0.2,2.8,2.5,4.7
		c1.2-1,1.2-1,1.1-2.8c0-4.4-0.3-8.6-0.9-13c-0.3-2.7-0.4-5.4-0.5-8.1c0-0.9-0.1-1.9-0.1-2.8c0.1-0.8,0.2-1.5,0.3-2.3
		c1-0.7,2-1.3,3-2c-1.3-4.1-1.3-4.1-3-8C282.8,319.7,282.8,319.7,280,322z M327,329c-3.4,3.9-4.6,6.9-4.4,12c0.7,3.3,2.3,5.4,4.4,8
		c2-3.5,2.9-7.1,4-10.9c1.1-4.1,2.3-8.1,4-12.1C331.3,326,330,326.8,327,329z M383,345c-2.7,4.7-3.6,8.6-3,14c1.7,3.8,3.2,5.4,7,7
		c4.8,0.7,8.2,0.5,12.4-1.9c2.5-2,2.5-2,4.6-4.1c0.5-5.6,0.2-9.2-3-14c-2.6-3-5-4.8-9-5.6C388.1,341.2,386,342.4,383,345z M297,375
		c0,1,0,2,0,3c1.9,1.6,1.9,1.6,4.2,2.9c3.3,2.1,6.1,4.1,8.8,7.1c0.3-2,0.7-4,1-6C306.5,379,302.3,376.5,297,375z M281,376
		c-0.3,0.7-0.7,1.3-1,2c0.7,0.6,1.3,1.2,2,1.9c2,2.1,2,2.1,2,4.1c-3,0-5.9,0-9,0c0,0.7,0,1.3,0,2c2.5,1,2.5,1,5,2
		c-0.3,0.7-0.7,1.3-1,2c-2.3,0-4.6,0-7,0c0,0.7,0,1.3,0,2c0.8,0.5,1.6,1,2.5,1.5c0.8,0.5,1.6,1,2.5,1.5c0,0.7,0,1.3,0,2
		c-2,0-4,0-6,0c-0.1,2.3-0.1,2.3,1,5c5.7,5.2,13.9,7.4,21,10c0.7-0.9,1.4-1.8,2.2-2.7c1-1.2,2-2.3,2.9-3.5c0.5-0.6,0.9-1.2,1.4-1.8
		c3.2-3.8,6.5-7,10.4-10.1c-5.9-9.9-14.3-14.3-25-18C283.7,376,282.4,376,281,376z M318,404c1,2,1,2,1,2L318,404z M307,407
		c-1.4,1.6-2.7,3.3-4,5c3.2-1.4,4-2,6-5C308.3,407,307.7,407,307,407z M312,410c-1,1.5-1,1.5-2,3c1.3-0.7,2.6-1.3,4-2
		C313.3,410.7,312.7,410.3,312,410z M374,412c0.3,0.7,0.7,1.3,1,2c0.7,0,1.3,0,2,0c0-0.7,0-1.3,0-2C376,412,375,412,374,412z"/>
	<path class="st1" d="M315.1,253c0.8,0.1,1.6,0.2,2.4,0.3c0.8,0.1,1.6,0.2,2.4,0.3c2.1,0.4,2.1,0.4,4.1,1.4
		c-0.2,1.6-0.2,1.6-0.4,3.2c0,3.9,0,3.9,2.9,6.2c3.3,1.5,4.3,1.7,7.7,1.6c3.8,0,3.8,0,5.8,1.7c1.2,2.5,1.9,4.5,2.1,7.3
		c-1.3,1.8-1.3,1.8-3,3c-0.7,0-1.3,0-2,0c0.1,1.6,0.2,3.3,0.4,4.9c0.1,1.4,0.1,1.4,0.2,2.7c0.2,2.6,0.2,2.6,2.4,4.4
		c-0.1,3.9-0.8,5.8-3.2,8.9c-2.8,2.1-2.8,2.1-6,1.9C328,300,328,300,326,299c-2.6,0.4-2.6,0.4-5,2c-1.3,2.3-2.1,4.5-3,7
		c-1.6,0.1-3.2,0.1-4.8,0.1c-0.9,0-1.8,0-2.7,0.1C308,308,308,308,305,306c0-1,0.1-1.9,0.1-2.9c0.2-3.2,0.2-3.2-2.1-4.9
		c-3.9-1.5-6.8-1.3-11-1.1c-4.6-7.3-4.6-7.3-4-12c1.3-0.7,2.6-1.3,4-2c0.1-1.6,0.1-3.2,0.1-4.9c0-1.4,0-1.4,0.1-2.7
		c0-2.6,0-2.6-2.2-4.4c0.1-4.9,2.8-7.5,6-11c2.8,0.5,5.3,1.1,8,2c2-0.3,4-0.6,6-1c0.1-0.9,0.2-1.9,0.4-2.9
		C311,254.8,311.4,253,315.1,253z M305,275.8c-1.5,3.5-1,5.7,0,9.2c3.3,3.2,5.7,4.9,10.3,5.2c4.9-0.3,7.1-1.8,10.6-5.1
		c1.3-2.2,1.3-2.2,0.6-5.1c-2.2-4.5-4.5-7.4-9.4-9.1C312.3,271,308.6,272.6,305,275.8z"/>
	<path class="st1" d="M347,329c7.4,2.2,7.4,2.2,10,5c0.6,5-0.6,7.6-3.4,11.8c-0.6,0.9-1.3,1.9-1.9,2.9c-0.8,1.2-0.8,1.2-1.6,2.4
		c-0.3,0.7-0.7,1.3-1,2c1.6,0.3,3.3,0.7,5,1c-0.3,1-0.7,2-1,3c-6.6,1.2-6.6,1.2-10-1c-0.7-4-0.2-5.7,2-9.2c0.8-1.1,1.7-2.1,2.5-3.2
		c0.4-0.5,0.9-1.1,1.3-1.7c1.1-1.3,2.1-2.7,3.2-4c-1.1-2.2-1.9-3.9-3.6-5.6c-0.5-0.5-0.9-0.9-1.4-1.4C347,330.3,347,329.7,347,329z"
		/>
	<path class="st2" d="M360,335c6.4,0.5,6.4,0.5,9,2.8c1,2.2,1,2.2,0.7,4.4c-0.2,0.6-0.5,1.2-0.7,1.8c-1.5-1.2-2.9-2.5-4.4-3.7
		c-1.5-1.2-3-2.2-4.6-3.3C360,336.3,360,335.7,360,335z"/>
	<path class="st2" d="M359,341c1.6,0,3.3,0,5,0c-0.3,1.3-0.7,2.6-1,4c-1.3,0.3-2.6,0.7-4,1C359,344.4,359,342.7,359,341z"/>
	<path class="st2" d="M343,334c1.3,0,2.6,0,4,0c-0.3,1.6-0.7,3.3-1,5c-1.3-0.3-2.6-0.7-4-1C342.3,336.7,342.7,335.4,343,334z"/>
</g>
<g id="message">
	<path class="st3" d="M223.4,255.2c1.5,0,3,0,4.5,0c1.6,0,3.3,0,4.9,0c1.7,0,3.5,0,5.2,0c4.7,0,9.4,0,14.2,0c3.9,0,7.9,0,11.8,0
		c9.3,0,18.6,0,27.9,0c9.6,0,19.2,0,28.8,0c8.2,0,16.5,0,24.7,0c4.9,0,9.8,0,14.8,0c4.6,0,9.3,0,13.9,0c1.7,0,3.4,0,5.1,0
		c16.1-0.1,16.1-0.1,22.6,5.2c3.6,5.4,3.6,5.4,3.2,9.2c-1.2,2.9-2.1,3.3-4.9,4.6c-5.2,2.7-10.1,5.8-15,9c-7.7,5-15.4,10-23.2,14.9
		c-7.5,4.8-14.9,9.5-22.4,14.3c-0.8,0.5-1.5,1-2.3,1.5c-4.5,2.9-8.9,5.8-13.3,8.8c-1,0.7-2.1,1.4-3.1,2.1c-2,1.3-4,2.7-6,4.1
		c-0.9,0.6-1.8,1.2-2.8,1.8c-0.8,0.5-1.6,1.1-2.4,1.7c-3.2,1.4-4.9,0.9-8.1-0.1c-2.8-1.6-5.5-3.2-8.3-5c-0.8-0.5-1.6-1-2.4-1.5
		c-2.5-1.6-5-3.2-7.5-4.9c-1.5-1-3-1.9-4.5-2.9c-3.1-2-6.3-4.1-9.4-6.1c-7.6-4.9-15.3-9.8-22.9-14.7c-6.2-4-12.4-8-18.5-12
		c-1.2-0.8-2.4-1.6-3.6-2.4c-2.3-1.5-4.6-3-6.8-4.5c-1-0.7-2-1.3-3.1-2c-0.9-0.6-1.8-1.2-2.7-1.8c-2.4-1.4-4.4-2-7-2.6
		c0.6-5,1.4-8.6,4.6-12.5C214,256.1,217.7,255.2,223.4,255.2z"/>
	<path class="st4" d="M279.8,333.2c0.8,0.5,1.6,1,2.4,1.5c2.2,1.4,4.5,2.9,6.8,4.3c2,1.3,4,2.6,6,4c0.8,0.5,1.5,1,2.3,1.6
		c0.7,0.5,1.3,0.9,2,1.4c3.4,1.5,5.3,1.5,9.1,1c3.8-2,7.2-4.4,10.7-6.8c1.4-1,1.4-1,2.9-2c2.3-1.6,4.7-3.2,7-4.9
		c4.4,1.8,7.3,4.7,10.6,8c0.6,0.6,1.2,1.2,1.8,1.8c1.9,1.9,3.9,3.9,5.8,5.8c1.3,1.3,2.7,2.7,4,4c2.8,2.8,5.6,5.6,8.5,8.5
		c3.6,3.6,7.2,7.2,10.9,10.8c2.8,2.8,5.6,5.5,8.3,8.3c1.3,1.3,2.7,2.7,4,4c1.9,1.9,3.7,3.7,5.6,5.6c1.1,1.1,2.1,2.1,3.2,3.2
		c2.3,2.7,2.3,2.7,2.3,6.1c-11.8,0.1-23.5,0.1-35.3,0.2c-5.5,0-10.9,0-16.4,0.1c-5.3,0-10.5,0.1-15.8,0.1c-2,0-4,0-6,0
		c-2.8,0-5.6,0-8.5,0c-0.8,0-1.6,0-2.5,0c-5.8,0-9.6-1.4-14.8-3.8c-3.1-0.3-3.1-0.3-6,0.2c-0.9,0.1-1.9,0.2-2.9,0.3
		c-2.9,0.5-2.9,0.5-6,2.9c-2.6,0.6-2.6,0.6-5.7,0c-2.7-2-4.9-4.4-7.2-6.8c-0.6-0.7-1.3-1.3-1.9-2c-1.5-1.6-3.1-3.2-4.6-4.9
		c1.1-2.8,2.2-5.5,3.6-8.2c1.6-5.5,1.2-11.6-1.3-16.9c-1.3-2.1-1.3-2.1-3.5-4.6c1.6-3.7,3.6-6.2,6.5-9c1.2-1.2,1.2-1.2,2.5-2.5
		c0.9-0.8,1.7-1.7,2.6-2.5c0.9-0.8,1.7-1.7,2.6-2.6C275.5,337.3,277.6,335.3,279.8,333.2z"/>
	<path class="st4" d="M226.5,343.6c6.7,1.6,10.3,6.2,14.9,11.1c0.9,1,1.9,1.9,2.8,2.9c7.8,8.1,7.8,8.1,8.8,12.8c-1,6-5.3,9.1-9.8,13
		c1.9,4.8,5.4,8,9,11.5c1,1,1,1,2,2c2.1,2.1,4.2,4.1,6.3,6.2c1.4,1.4,2.8,2.8,4.3,4.2c3.5,3.4,6.9,6.9,10.4,10.3
		c4.2-2,6.9-4.5,10.2-7.8c2.8-1.6,4.9-1.8,8-1.1c5.3,2.2,9.1,6.8,13.1,10.8c1.4,1.4,1.4,1.4,2.9,2.7c6.7,6.7,6.7,6.7,7.7,12.3
		c-0.9,3.9-1.7,5.6-4.5,8.4c-0.7,0.8-1.5,1.5-2.2,2.3c-9.7,9.3-18.1,11.6-31.3,11.4c-18.3-1.1-32.4-21.5-44.6-33.6
		c-2.1-2.1-4.2-4.1-6.3-6.2c-3.1-3-6.1-6-9.2-9.1c-0.9-0.9-1.9-1.8-2.8-2.7c-7-7-10.9-13.8-12.3-23.6c0.1-13.2,2.7-21.2,11.8-30.7
		c0.9-0.9,0.9-0.9,1.7-1.8C220.3,346,222.6,344.6,226.5,343.6z"/>
	<path class="st5" d="M405.2,285.3c0,33.9,0,67.8,0,102.7c-3.4,0-3.4,0-4.9-1.4c-0.6-0.7-1.1-1.4-1.7-2.1c-4-4.8-8.3-9.2-12.7-13.6
		c-0.7-0.7-1.3-1.3-2-2c-3.3-3.3-6.7-6.5-10.3-9.5c-6.7-5.8-12.9-12.2-19.2-18.6c-1.3-1.3-2.6-2.6-3.8-3.8c-3.1-3.1-6.2-6.2-9.3-9.3
		c3.5-3.6,6.8-6.7,11.1-9.3c1.5-1,1.5-1,3.1-1.9c1.1-0.7,2.1-1.3,3.3-2c2.3-1.4,4.5-2.8,6.8-4.3c1.1-0.7,2.2-1.4,3.4-2.1
		c4.6-2.9,9.2-5.8,13.7-8.8c1.5-1,3.1-2,4.6-3c0.7-0.5,1.4-0.9,2.2-1.4c3.2-2,6.3-4.1,9.5-6.1c1-0.6,2-1.3,3-1.9
		C404.1,285.3,404.1,285.3,405.2,285.3z"/>
	<path class="st6" d="M204.5,285.3c14.2,7.8,14.2,7.8,20.5,12.1c9.3,6.3,18.8,12.3,28.4,18.3c5,3.2,10,6.3,15,9.5
		c-5.7,6.9-11.9,13.1-18.2,19.4c-4.6-2-7.8-5-11.4-8.4c-4.8-4-8.5-4.6-14.6-4.4c-7.1,0.8-11.6,5.5-16.6,10.1c-1.9,1.6-1.9,1.6-3,1.6
		C204.5,324.2,204.5,305,204.5,285.3z"/>
	<path class="st7" d="M279.8,333.2c0.8,0.8,1.5,1.5,2.3,2.3c-0.6,0.5-1.1,0.9-1.7,1.4c-7.2,6.2-14.4,12.5-20,20.2
		c0-4.6,0-4.6,1.8-6.9c0.8-0.8,1.6-1.6,2.5-2.4c0.9-0.9,1.7-1.7,2.7-2.6c0.9-0.9,1.8-1.8,2.8-2.7c1.4-1.4,1.4-1.4,2.8-2.7
		C275.2,337.6,277.4,335.4,279.8,333.2z"/>
	<path class="st8" d="M266.1,346.9c0.8,0.4,1.5,0.8,2.3,1.1c-5.4,6.6-5.4,6.6-8,9.1c0-4.6,0-4.6,2.9-7.7
		C264.2,348.6,265.1,347.7,266.1,346.9z"/>
	<path class="st9" d="M347.1,321.8c0.8,0.4,1.5,0.8,2.3,1.1c-0.8,0.7-0.8,0.7-1.6,1.4c-2,2.2-2.4,3.7-2.9,6.6
		c-1.1-1.5-2.3-3-3.4-4.6C343.2,324.8,345.1,323.3,347.1,321.8z"/>
</g>
</svg>
